<?xml version="1.0" encoding="UTF-8"?>
<svg width="24" height="24" viewBox="0 0 24 24" fill="currentColor" xmlns="http://www.w3.org/2000/svg">
    <path d="M17.523 2.047a1.125 1.125 0 0 0-.51.315L15.48 3.72a1.121 1.121 0 0 0 0 1.5l.375.375a1.121 1.121 0 0 0 1.5 0l1.5-1.5a1.125 1.125 0 0 0 0-1.59l-1.359-1.359a1.125 1.125 0 0 0-.51-.315zM6.477 2.047a1.125 1.125 0 0 1 .51.315l1.533 1.358a1.121 1.121 0 0 1 0 1.5l-.375.375a1.121 1.121 0 0 1-1.5 0l-1.5-1.5a1.125 1.125 0 0 1 0-1.59l1.359-1.359a1.125 1.125 0 0 1 .51-.315zM12 5.25c-3.314 0-6 2.686-6 6v7.5c0 .414.336.75.75.75h10.5c.414 0 .75-.336.75-.75v-7.5c0-3.314-2.686-6-6-6zm0 1.5c2.486 0 4.5 2.014 4.5 4.5v6.75H7.5V11.25c0-2.486 2.014-4.5 4.5-4.5z"/>
</svg> 