<svg xmlns="http://www.w3.org/2000/svg" width="100" height="100" viewBox="0 0 100 100">
  <g>
    <!-- Light Bulb -->
    <path 
      d="M50,15 C35,15 25,25 25,40 C25,50 30,55 35,60 L35,75 L65,75 L65,60 C70,55 75,50 75,40 C75,25 65,15 50,15 Z" 
      fill="#FFD700" 
      stroke="#FFA500" 
      stroke-width="2" />
    
    <!-- Bulb Base -->
    <rect x="35" y="75" width="30" height="5" fill="#A0A0A0" stroke="#808080" stroke-width="1" />
    <rect x="38" y="80" width="24" height="5" fill="#A0A0A0" stroke="#808080" stroke-width="1" />
    
    <!-- Light Rays -->
    <line x1="50" y1="5" x2="50" y2="10" stroke="#FFD700" stroke-width="2" />
    <line x1="30" y1="10" x2="35" y2="15" stroke="#FFD700" stroke-width="2" />
    <line x1="15" y1="30" x2="20" y2="35" stroke="#FFD700" stroke-width="2" />
    <line x1="10" y1="50" x2="15" y2="50" stroke="#FFD700" stroke-width="2" />
    <line x1="70" y1="10" x2="65" y2="15" stroke="#FFD700" stroke-width="2" />
    <line x1="85" y1="30" x2="80" y2="35" stroke="#FFD700" stroke-width="2" />
    <line x1="90" y1="50" x2="85" y2="50" stroke="#FFD700" stroke-width="2" />
  </g>
</svg>
