<?xml version="1.0" encoding="UTF-8"?>
<svg width="24" height="24" viewBox="0 0 24 24" fill="none" xmlns="http://www.w3.org/2000/svg">
    <path d="M4 10C4 10 5.5 10 7 10C8.5 10 9 9 10 9C11 9 12 10 13 10C14 10 15 9 16 9C17 9 18 10 19 10C20 10 20 10 20 10" stroke="currentColor" stroke-width="2" stroke-linecap="round" stroke-linejoin="round"/>
    <path d="M4 14C4 14 5.5 14 7 14C8.5 14 9 13 10 13C11 13 12 14 13 14C14 14 15 13 16 13C17 13 18 14 19 14C20 14 20 14 20 14" stroke="currentColor" stroke-width="2" stroke-linecap="round" stroke-linejoin="round"/>
    <path d="M4 10V14" stroke="currentColor" stroke-width="2" stroke-linecap="round" stroke-linejoin="round"/>
    <path d="M20 10V14" stroke="currentColor" stroke-width="2" stroke-linecap="round" stroke-linejoin="round"/>
</svg> 