<svg xmlns="http://www.w3.org/2000/svg" viewBox="0 0 100 100" width="100" height="100">
  <!-- Tennis racket -->
  <ellipse cx="50" cy="35" rx="25" ry="30" fill="none" stroke="black" stroke-width="2"/>
  
  <!-- Racket strings -->
  <g stroke="black" stroke-width="1">
    <!-- Vertical strings -->
    <line x1="35" y1="15" x2="35" y2="55"/>
    <line x1="40" y1="10" x2="40" y2="60"/>
    <line x1="45" y1="8" x2="45" y2="62"/>
    <line x1="50" y1="7" x2="50" y2="63"/>
    <line x1="55" y1="8" x2="55" y2="62"/>
    <line x1="60" y1="10" x2="60" y2="60"/>
    <line x1="65" y1="15" x2="65" y2="55"/>
    
    <!-- Horizontal strings -->
    <line x1="30" y1="20" x2="70" y2="20"/>
    <line x1="28" y1="25" x2="72" y2="25"/>
    <line x1="27" y1="30" x2="73" y2="30"/>
    <line x1="26" y1="35" x2="74" y2="35"/>
    <line x1="27" y1="40" x2="73" y2="40"/>
    <line x1="28" y1="45" x2="72" y2="45"/>
    <line x1="30" y1="50" x2="70" y2="50"/>
  </g>
  
  <!-- Racket handle -->
  <rect x="47" y="65" width="6" height="25" fill="black"/>
  
  <!-- Tennis ball -->
  <circle cx="75" cy="75" r="8" fill="none" stroke="black" stroke-width="2"/>
  <path d="M70 70 Q75 80, 80 70" fill="none" stroke="black" stroke-width="1"/>
</svg>

